<?xml version="1.0" encoding="UTF-8"?>
<svg id="b" data-name="Layer 2" xmlns="http://www.w3.org/2000/svg" width="1137.6" height="588.3" viewBox="0 0 1137.6 588.3">
  <g id="c" data-name="MAIN LOGO">
    <g>
      <g id="d" data-name="2m7O0Z.tif">
        <path d="M1113.2.2c9.6,1.1,17.5,6.7,21.5,19.5,8.2,26.3-2.4,56.4-12,80.9-10.6,26.9-23.9,52.5-38.2,77.6-47.4,83.7-115.3,181-194.4,237.7-34.6,24.8-70.9,39.3-114.3,39.3-41,0-80.5-18.3-107.9-48-4-4.3-2.8-3.4-7.5-1-11.5,6.3-22.3,13.7-34.4,18.9-27.8,12-54.6,25-83.9,33.4-30.1,8.7-61.1,14.8-92.4,16.8-33,2.1-67.1-1.7-98.6-12.8-15.8-5.6-31-13-45.1-22.1-7.2-4.7-14.1-9.8-20.6-15.3-4.7-3.9-11.4-14.3-18.2-13.2-44.6,6.4-87.2,9.3-130.6-5.3C56,379.4-3.1,307,.1,220.3,3,143.3,53.9,76.8,124.8,48.6c39.4-15.6,86.5-20,125.4.2,9.6,5,20.7,12.2,26.5,21.5,1.2,1.9,3.7,5.4,2.3,7.8s-8.2,1-10.7.2c-83.1-26-186.6,22.5-214.8,106.2-19.5,57.8,5.1,118.6,52.9,154.2,40.4,30,87.4,40.5,136.9,39.8,3.6,0,4.3-1,3.2-4.5-19.2-39.3-24.3-84.8-12.5-127.1,20.5-73.8,116.3-138,190.3-103.3,49.2,22.5,63.3,67.5,52.4,118-9.8,40.4-37.2,74.8-71.1,98.1-26.8,17.4-55.6,31.2-86.4,39.9-2.1.7-2.6,2.1-1,3.7,37.3,38,101.7,44.8,152.4,42.8,62.4-2.4,126.1-19.7,178.4-54.2,3-2,3.2-3.9,1-6.7-6.3-8.1-11.6-16.8-15.5-26.2-29.8-67.2-6.6-155.4,54.7-197,52.5-34.3,121.4-19.5,112.7,54.3-4.1,27.1-16.4,52.6-30.9,75.6-15.1,23.9-33.2,46.1-53.3,66-8.8,8.8-18.2,17-27.4,25.3-1.5,1.3-1.6,2.9-.6,4.4,15,22.3,39,38,65,44.4,27.8,6.9,55.5,1.6,81.5-9.3,42.4-17.8,77.4-50,107.3-84.2,51-58.3,96.5-127.1,125.8-198.9,6-14.6,24.8-58.3,12.4-72.3-4.4-4.9-12.3-4.1-18.5-1.8-10.2,3.8-19.2,10.5-27.6,17.4-47,38.1-86.8,84.9-126.7,130.1-4.7,5.3-13.1,14.8-16,11.9-4.1-4.1,1.5-11.6,5-17.2,39.2-62.8,83.6-123.3,140.1-171.1,13.9-11.8,50.6-39,75.4-36.3ZM384.8,167.5c-22.9.3-45.9,10.3-64.4,23.7-32.7,23.7-55.2,59.2-54.2,100.3.7,26.5,8.3,52.8,22.2,75.3,3.7,6,10.7,4.2,16.3,3,7.7-1.6,15.3-3.5,22.8-5.9,19.7-6.3,38.4-15.4,55.8-26.6,31.3-20,59-47.5,66.5-85.3,5.7-28.7-1.8-60-28.6-75.3-11.6-6.6-24.1-9.3-36.6-9.1ZM778.3,212.8c0-10.3-2-20.2-8.1-27.3-11.5-13.4-31.8-11.5-46.3-4.9-20,7.9-36,21.3-49,38.3-18.2,25.2-26.8,56.5-24,87.4,2,22.7,10.2,45.6,23.3,64.3,3.5,3.9,9.4-.9,12.3-3.3,33.3-27,61.5-62,78.7-101.3,3-6.9,5.7-13.9,7.8-21.1,2.7-8.9,5.3-20.7,5.3-32.1Z"/>
      </g>
      <g>
        <path d="M242.7,545.1h3.6v27.7c0,2.1-.2,4-.6,5.9-.4,1.9-1.2,3.5-2.2,4.9-1.1,1.4-2.5,2.6-4.4,3.4-1.9.8-4.2,1.3-7.2,1.3s-4.2-.3-5.8-.9c-1.6-.6-2.9-1.3-4-2.2-1-.9-1.8-1.8-2.3-2.9-.5-1-.8-2-.9-2.9h3.8c.3,1.1.7,2.1,1.3,2.8.6.7,1.3,1.3,2.1,1.7.8.4,1.7.7,2.7.9,1,.2,2,.2,3.1.2,2.4,0,4.3-.4,5.8-1.2,1.5-.8,2.6-1.9,3.3-3.3.7-1.3,1.2-2.9,1.5-4.6.2-1.7.3-3.4.3-5.2-1.1,1.9-2.7,3.3-4.7,4.3-2,1-4.1,1.5-6.2,1.5s-4.4-.4-6.1-1.3c-1.7-.9-3.1-2.1-4.3-3.6s-2-3.2-2.5-5.2c-.6-2-.8-4-.8-6.2s.3-4.4.8-6.3c.5-2,1.3-3.7,2.5-5.1,1.1-1.4,2.6-2.6,4.3-3.4,1.7-.8,3.8-1.2,6.3-1.2s2,.1,3,.4c1,.3,2,.7,3,1.2,1,.5,1.9,1.2,2.7,2,.8.8,1.5,1.7,2,2.7h.1v-5.4ZM242.7,560.5c0-1.9-.2-3.6-.7-5.2-.5-1.6-1.1-3-2-4.1-.9-1.2-2-2.1-3.3-2.8-1.3-.7-2.8-1-4.4-1s-2.9.3-4.1.8c-1.3.5-2.4,1.3-3.3,2.3-.9,1-1.7,2.3-2.2,3.8s-.8,3.2-.8,5.1c0,1.9,0,3.7.5,5.4.4,1.7,1,3.1,1.9,4.4.9,1.3,2,2.3,3.3,3,1.3.7,2.9,1.1,4.8,1.1s3.1-.3,4.4-1c1.3-.7,2.4-1.6,3.3-2.8.9-1.2,1.6-2.5,2-4.1.5-1.6.7-3.2.7-4.9Z" fill="#121212"/>
        <path d="M345,557.9c.7,0,1.5-.2,2.4-.4.9-.2,1.7-.4,2.3-.7.6-.3,1-.7,1.1-1.4.1-.7.2-1.3.2-1.8,0-1.8-.6-3.3-1.7-4.5-1.2-1.2-3.1-1.7-5.9-1.7s-2.3.1-3.4.3c-1,.2-1.9.6-2.7,1.1-.8.5-1.4,1.2-1.9,2.1-.5.9-.8,2-1,3.3h-3.6c.1-1.8.5-3.4,1.2-4.6.7-1.3,1.6-2.3,2.8-3.1,1.1-.8,2.4-1.4,3.9-1.8,1.5-.4,3-.6,4.7-.6s3,.2,4.4.5c1.4.3,2.5.9,3.6,1.6,1,.7,1.8,1.7,2.4,2.9.6,1.2.9,2.7.9,4.5v16.7c0,1.4.2,2.3.7,2.6.5.4,1.5.3,3-.3v2.8c-.3,0-.7.2-1.2.4-.5.2-1.1.2-1.6.2s-1.1,0-1.6-.2c-.6,0-1.1-.3-1.4-.6-.4-.3-.6-.7-.9-1.1-.2-.4-.4-.9-.4-1.4,0-.5-.1-1-.1-1.6-1.5,1.7-3.2,2.9-5.2,3.8-1.9.9-4,1.3-6.3,1.3s-2.6-.2-3.9-.5c-1.2-.4-2.3-.9-3.3-1.7-.9-.7-1.7-1.7-2.3-2.8-.6-1.1-.8-2.4-.8-3.9,0-5.2,3.6-8.3,10.7-9.2l4.9-.7ZM351,559.7c-1.5.6-3,1-4.6,1.2-1.5.2-3.1.4-4.6.5-2.7.2-4.8.8-6.4,1.8-1.5,1-2.3,2.6-2.3,4.7s.2,1.8.6,2.5c.4.7.9,1.3,1.5,1.7.6.5,1.3.8,2.1,1,.8.2,1.6.3,2.5.3,1.4,0,2.8-.2,4.1-.5,1.3-.4,2.5-.9,3.6-1.6,1-.7,1.9-1.7,2.5-2.8.6-1.1.9-2.5.9-4v-4.8Z" fill="#121212"/>
        <path d="M440.2,575.8v-42.6h3.6v42.6h-3.6Z" fill="#121212"/>
        <path d="M529.1,575.8v-42.6h3.6v42.6h-3.6Z" fill="#121212"/>
        <path d="M619.7,561.3c0,1.7.2,3.2.7,4.7.4,1.5,1.1,2.8,1.9,3.8.8,1.1,1.9,2,3.2,2.6,1.3.7,2.8,1,4.5,1s4.3-.6,6-1.8c1.7-1.2,2.8-3,3.3-5.2h4c-.4,1.5-1,2.8-1.7,4.1-.7,1.2-1.6,2.3-2.7,3.3-1.1.9-2.3,1.6-3.8,2.2-1.5.5-3.2.8-5.1.8s-4.6-.4-6.3-1.2c-1.8-.8-3.2-2-4.4-3.4-1.1-1.4-2-3.1-2.5-5.1-.6-2-.8-4.1-.8-6.3s.3-4.4,1-6.3c.7-2,1.6-3.7,2.8-5.2,1.2-1.5,2.7-2.6,4.4-3.5,1.7-.8,3.7-1.3,5.9-1.3,4.2,0,7.5,1.5,9.9,4.4,2.4,2.9,3.6,7.1,3.6,12.6h-23.8ZM639.7,558.3c0-1.5-.2-2.9-.6-4.2-.4-1.3-1-2.5-1.8-3.4-.8-1-1.8-1.7-3-2.3-1.2-.6-2.6-.9-4.2-.9s-3,.3-4.2.9c-1.2.6-2.2,1.4-3.1,2.4-.8,1-1.5,2.1-2,3.4-.5,1.3-.8,2.7-1,4.1h20Z" fill="#121212"/>
        <path d="M730,575.8h-3.6v-30.7h3.6v5.7h.1c1-2.4,2.3-4.2,3.8-5.1,1.6-1,3.6-1.5,6.2-1.5v3.8c-2,0-3.7.3-5,.9-1.3.7-2.3,1.6-3.1,2.7-.8,1.1-1.3,2.5-1.6,4.1-.3,1.6-.4,3.2-.4,4.9v15Z" fill="#121212"/>
        <path d="M821.5,584c.5,0,1,.2,1.5.2.5,0,1,.1,1.5.1,1,0,1.8-.3,2.4-.9.6-.6,1.2-1.4,1.6-2.3.4-.9.8-1.8,1-2.8.3-1,.6-1.8.9-2.5l-11.9-30.9h4l9.8,26.4,9.8-26.4h3.8l-11.4,30.3c-.7,1.9-1.4,3.7-2,5.2-.7,1.5-1.3,2.9-2.1,3.9-.7,1.1-1.5,1.9-2.4,2.5-.9.6-1.9.9-3.2.9s-1.2,0-1.8-.1c-.6,0-1.1-.2-1.6-.3v-3.4Z" fill="#121212"/>
      </g>
    </g>
  </g>
</svg>