<?xml version="1.0" encoding="UTF-8"?>
<svg id="b" data-name="Layer 2" xmlns="http://www.w3.org/2000/svg" width="790.6" height="590.3" viewBox="0 0 790.6 590.3">
  <g id="c" data-name="OFFICIAL LOGOS">
    <g id="d" data-name="FULL LOGO">
      <g>
        <path d="M481.6,102.6c.1.8.2,1.6.4,2.3,12,76.2,24.4,155,79.8,187.2,18.9,11,41.4,15.9,68.4,14.9,3.4-.1,7-.4,10.6-.7l-.3-1.5c-31.2,2.8-56.6-1.7-77.5-13.9-54.7-31.8-67-110.3-79-186.2-.8-5.2-1.7-10.5-2.5-15.8h0c0-2-.1-4-.2-5.9-.5-9.9-1.4-17.4-2.8-22.6-.9-3.4-2.2-6.7-3.8-9.9,0,0,0-.2-.1-.3-1.1-2.2-2.4-4.4-3.8-6.4,1.3,4,2.3,8.3,3.2,12.7,2.8,14.9,5.3,30.7,7.8,46Z"/>
        <path d="M479.1,107.1c.8,6.2,1.7,12.5,2.5,18.7,9.7,70.2,22.7,139.2,72.8,169.5,19.2,11.6,42.4,16.8,70.6,15.7,2.6-.1,5.3-.3,8.1-.5l-.2-1.5c-31.3,2.4-56.5-2.4-77.1-14.9-53-31.9-64-108.3-74.1-183.1-.2-1.4-.4-2.7-.5-4.1-2.2-16.1-4.4-32.8-7-48.4-.9-5.1-2-10.1-3.5-14.7-3.7-5.4-8.5-10.3-14.4-14.7,5.6,10.3,9,22.3,10.3,35.8,1.5,15.7,2.5,32.4,3.5,48.6,2.2,35.6,4.5,71.8,11.5,103.9,8.1,36.8,22.5,68.1,50.4,86.8,4.6,3.1,9.4,5.7,14.5,8,3.2,1.4,6.5,2.7,9.9,3.8,15.3,5,32.9,7.1,53.1,6.4v-1.5c-20.1.8-37.4-1.3-52.5-6.3-3.3-1.1-6.4-2.3-9.5-3.7-5-2.2-9.8-4.9-14.2-7.9-29.9-20-44.1-54.9-51.7-95.6-5.5-29.5-7.5-62-9.5-94-1-16.1-2.1-32.9-3.5-48.6-.6-6.8-1.8-13.2-3.6-19.3,1.6,5.4,2.8,11.2,3.5,17.3,1.9,15.7,3.3,32.4,4.7,48.5,2.2,25.7,4.5,51.8,8.5,76.3,7.9,48.4,22.8,90.9,57.9,113.6,3.5,2.2,7.1,4.3,10.9,6.1,2.7,1.3,5.4,2.4,8.2,3.5,16,6,34.5,8.6,56,7.7.9,0,1.9,0,2.8-.1l-.2-1.5c-22.5,1.2-41.7-1.3-58.1-7.6-2.7-1-5.2-2.1-7.8-3.3-3.7-1.8-7.2-3.7-10.6-5.9-37.8-24.5-51.9-72.4-59.2-125.8-2.8-20.5-4.7-41.9-6.5-63-1.4-16.1-2.8-32.8-4.7-48.6-.9-7.8-2.6-15.1-4.9-21.9,2.2,6.2,3.7,12.8,4.8,19.9,2.2,15.7,4.1,32.4,5.8,48.5,1.7,15.4,3.4,30.9,5.5,46.2,8.3,60.3,22.5,116.1,65.4,142.9,19.6,12.2,43.4,17.6,72.8,16.5,1.8,0,3.6-.2,5.5-.3l-.2-1.5c-31.4,2-56.5-3.2-76.8-15.8-46-28.7-58.7-91.6-66.7-157.4-1.2-10.2-2.4-20.4-3.5-30.7-1.8-16.1-3.6-32.8-5.8-48.5-1-7-2.5-13.5-4.6-19.6,1.9,5.5,3.4,11.4,4.4,17.7,2.6,15.7,4.8,32.3,7,48.4Z"/>
        <path d="M415.9,55.6c.3,1.1.6,2.2.9,3.3,2,8.1,3.1,16.5,3.7,24.9.1,2.1.2,4.2.3,6.4,0,0,0,.1,0,.2,0,1.9.1,3.9.1,5.9,0,.1,0,.2,0,.3,0,.6,0,1.1,0,1.7,0,1.4,0,2.7,0,4,.5-1.4,1-2.7,1.5-4,11.2-30.7,7.3-56.3-11.8-76-.9-.9-1.8-1.8-2.8-2.7.8.8,1.6,1.5,2.4,2.3,19.1,19,23.6,44.1,13.2,74.6-.9,2.6-1.8,5.1-2.7,7.7,0,2.4-.2,4.7-.4,7,1.7-4.8,3.4-9.6,5-14.3,2.6-7.6,4.2-14.8,5-21.7-.7,6.3-2.1,12.9-4.3,19.8-1.9,5.9-3.9,12-5.9,18.1-.4,4-1,7.7-1.7,11,3.3-9.7,6.6-19.4,9.5-28.8,2.4-7.6,3.9-14.9,4.5-21.8-.5,6.3-1.8,13-3.8,19.9-4.4,15.3-9.7,31.5-14.7,47.2-1.9,5.9-3.8,11.9-5.7,17.8-18.8,58.9-35,117.7-17.1,158.7-1.5,1.3-3,2.6-4.6,3.9-19.1-41-1.2-100.9,19.5-161,2-5.9,4.1-11.8,6.1-17.7.7-2,1.4-4,2.1-6-1.2,2.4-2.7,4.7-4.5,6.9-.7.9-1.5,1.8-2.3,2.6-1,1.1-2.1,2.2-3.3,3.3-.9.8-1.8,1.6-2.7,2.3-.9.8-1.9,1.5-2.9,2.2,0,0,0,0-.1,0-.7.5-1.4,1-2.1,1.5-.9.7-1.9,1.3-2.9,1.9-.7.5-1.4.9-2.2,1.3-.9.5-1.9,1.1-2.8,1.6-.7.4-1.4.8-2.2,1.2-.9.5-1.9.9-2.8,1.4-.7.3-1.5.7-2.2,1-.9.4-1.8.8-2.8,1.2-.7.3-1.5.6-2.2.9-.9.4-1.8.7-2.7,1.1-.8.3-1.7.6-2.5.9,0,0-.2,0-.2,0-.9.3-1.8.6-2.7.9-.7.3-1.5.5-2.3.8-.9.3-1.8.6-2.7.9-.8.2-1.5.5-2.3.7-.9.3-1.8.6-2.7.8-.8.2-1.6.5-2.4.7-.9.3-1.8.5-2.8.8-.8.2-1.6.5-2.4.7-.9.3-1.8.5-2.8.8-.8.2-1.7.5-2.5.7-.9.3-1.9.5-2.8.8-1,.3-2,.6-3.1.8-.9.3-1.9.5-2.9.8-.9.2-1.8.5-2.7.7-.9.3-1.9.5-2.9.8-.9.2-1.8.5-2.7.7-1,.2-1.9.5-2.9.7-.9.2-1.9.5-2.8.7-.8.2-1.6.4-2.4.6-.2,0-.4.1-.6.2-1,.3-2,.5-3,.8-1,.3-2.1.5-3.1.8-1.1.3-2.1.6-3.2.9-1.1.3-2.2.6-3.2.9-1.4.4-2.7.8-4,1.2-1.1.3-2.2.7-3.3,1-1.3.4-2.5.8-3.7,1.2-1.2.4-2.4.8-3.6,1.2-1.4.5-2.8,1-4.2,1.4-1.3.5-2.6,1-3.9,1.5-1.7.7-3.3,1.3-4.9,2-1.5.6-2.9,1.3-4.2,1.9-.1,0-.2.1-.3.2-2.3,1.1-4.6,2.3-6.8,3.6-2.5,1.5-5,3-7.3,4.7-4.6,3.3-8.9,7-12.9,11.1-3.6,3.8-6.7,7.7-9.3,12-1.5,2.3-2.8,4.7-3.9,7.1-1.7,3.4-3,7-4.2,10.6-.5,1.5-.9,3.1-1.3,4.6-.7,3.1-1.3,6.2-1.7,9.4-.2,1.3-.3,2.7-.4,4-.2,2.4-.3,4.8-.3,7.3s0,1.5,0,2.2c0,1.3,0,2.5.2,3.8.2,3.3.6,6.5,1.2,9.6.2,1.2.5,2.4.7,3.5.8,3.4,1.8,6.7,3.1,9.9.4,1.1.8,2.1,1.3,3.1,1.3,2.9,2.9,5.8,4.6,8.5.6.9,1.2,1.8,1.8,2.6,1.8,2.5,3.8,4.9,6.1,7.3.7.7,1.4,1.5,2.2,2.2,1.4,1.3,2.9,2.7,4.4,3.9.8.7,1.7,1.4,2.6,2,.8.6,1.6,1.2,2.4,1.8,2.4,1.7,4.9,3.2,7.5,4.6.8.5,1.7.9,2.6,1.3,2.5,1.2,5,2.4,7.6,3.4.8.3,1.7.7,2.6,1,2.5.9,5.1,1.7,7.8,2.4.8.2,1.7.5,2.5.7,2.3.6,4.8,1.1,7.2,1.5.8.2,1.6.3,2.5.4,2.3.4,4.6.7,7,.9.8,0,1.6.2,2.4.2,2.2.2,4.5.4,6.8.5.8,0,1.5,0,2.3,0,1.8,0,3.7,0,5.6,0s.7,0,1,0c.8,0,1.5,0,2.3,0,2.1,0,4.3-.1,6.3-.3.7,0,1.5,0,2.2-.2,2.1-.2,4.3-.4,6.3-.6.7,0,1.4-.2,2.1-.3,2-.3,3.9-.6,5.9-.9.7-.1,1.3-.3,2-.4,1.9-.4,3.8-.8,5.6-1.3.6-.2,1.3-.3,1.9-.5,1.8-.5,3.7-1,5.4-1.6.6-.2,1.2-.4,1.8-.6,1.8-.6,3.5-1.3,5.2-1.9.6-.2,1.2-.5,1.7-.7,1.7-.7,3.4-1.5,5-2.3.6-.3,1.1-.5,1.7-.8,1.2-.6,2.3-1.2,3.4-1.8.5-.3,1.1-.6,1.6-.9.5-.3,1-.6,1.6-1,1.4-.9,3-1.9,4.6-3.1.5-.3,1-.7,1.5-1.1,1.4-1,3-2.1,4.5-3.3.5-.4,1-.8,1.5-1.1,1.4-1.1,2.9-2.3,4.5-3.5.5-.4,1-.8,1.5-1.2,1.5-1.2,3-2.4,4.5-3.7.5-.4,1-.8,1.5-1.2,1.5-1.2,2.9-2.5,4.5-3.8.5-.4,1-.9,1.5-1.3,1.5-1.3,3.1-2.7,4.7-4.1.5-.4,1-.9,1.5-1.3-3.5-8.2-5.8-17.1-7.2-26.6-4.2-29,.3-63.3,7.4-98.7,2.9-14.6,6.2-29.4,9.5-44,3.6-15.9,7.3-32.3,10.2-47.9,1-5.1,1.6-10,1.8-14.8-.2,4.2-.6,8.4-1.4,12.9-2.6,15.6-5.9,32.1-9.1,48-4,20.2-8.1,40.6-11.1,60.4-3.7,24.7-5.8,48.5-4,70.1,2.2,25.8,9.8,48.2,26.7,64.8,8,7.8,17.6,14,29,18.7,11.4,4.7,24.6,7.9,39.8,9.7.9.1,1.9.2,2.8.3l.2-1.5c-12.9-1.3-24.4-3.7-34.5-7.1-14.5-4.8-26.3-11.8-35.7-21-18.6-18.2-25.8-43.6-26.9-72.8-.5-14.7.5-30.3,2.5-46.4,3-24.3,8.1-49.7,13.1-74.9,3.2-15.9,6.5-32.4,9.1-48,1.2-7.3,1.7-14.2,1.4-20.8.3,6,0,12.3-1,18.8-2.2,15.6-5.1,32.2-8,48.1-13.3,75.8-27.1,154.1,16.3,195.1,11,10.4,25,17.9,42.4,22.6,7.5,2,15.6,3.6,24.4,4.6,1.8.2,3.6.4,5.5.6l.2-1.5c-8.8-.8-17-2.1-24.5-3.8-19.3-4.5-34.6-12.2-46.4-23.4-42.8-40.5-29.1-118.5-15.9-194,2.8-16,5.7-32.5,8-48.2,1-6.9,1.3-13.6,1-19.8.3,5.7.1,11.7-.6,17.9-1.9,15.7-4.4,32.2-6.8,48.2-11.5,76-23.4,154.5,20.9,194.9,12.5,11.4,28.5,19.1,48.7,23.5,5.1,1.1,10.5,2,16.2,2.6,2.6.3,5.3.6,8.1.8l.2-1.5c-7.2-.6-13.9-1.4-20.3-2.6-21.5-4.1-38.4-11.9-51.3-23.7-43.8-39.9-31.9-118.2-20.4-193.8,2.4-16,4.9-32.6,6.8-48.3.8-7,1-13.5.5-19.8.5,5.7.4,11.6-.2,17.9-1.5,15.7-3.6,32.3-5.7,48.3-9.7,76.1-19.7,154.8,25.5,194.7,13.1,11.6,30,19.2,51.1,23.2,3.8.7,7.8,1.3,11.9,1.8,3.4.4,6.9.7,10.6.9v-1.5c-6.7-.4-13.2-1.2-19.3-2.2-22-3.7-39.3-11.4-52.7-23.2-44.7-39.4-34.7-117.8-25-193.6,2-16.1,4.2-32.7,5.7-48.4.7-7.8.7-15.2-.2-22.1.8,6.4,1,13.1.5,20.2-1.1,15.7-2.8,32.3-4.5,48.4-7.9,76.3-16.1,155.1,30.1,194.4,13.3,11.3,30.1,18.7,51,22.4,3.3.6,6.6,1.1,10.1,1.5,4.2.5,8.5.8,13,1.1v-1.5c-7.2-.4-14.1-1.1-20.6-2.2-21.5-3.5-38.6-10.9-52-22.3-45.6-38.8-37.5-117.4-29.6-193.3,1.7-16.1,3.4-32.7,4.5-48.5,1.8-25.7-5-46.6-20.3-62.3-9.1-3.8-19.5-7-31.1-9.8-17.8-4.2-34.8-6.3-51.3-6.3s-13.4.3-20.2,1c-8.1.8-16.2,2-24.5,3.6-15.2,3.1-28,7-38.3,11.7-19.1,9.3-28.6,20.7-28.6,34.3s3,16.5,9.1,22.5c6.1,6,13.6,9,22.5,9,13.7,0,23.2-6.2,28.4-18.7l9.9-23.1c4.2-9.8,10.6-17.5,19.1-23.1,4.4-2.9,9-5,14-6.4,4.7-1.3,9.7-2,15-2,9,0,17.7,2,26,5.9,8.3,4,15.2,9.2,20.5,15.8,5.9,7.3,9.9,16.1,12.5,25.1ZM299.5,248.6c5-9.7,10.7-19.5,16.9-29.5h0c2.8-3.2,5.7-6.2,8.7-8.9-11.8,19.3-22.1,38.2-29.3,56.2.6-6.2,1.8-12.1,3.6-17.8ZM295.5,275.3c0-.8,0-1.6,0-2.4,7.6-21.2,20-43.7,34.3-66.7,1.5-1.2,3-2.3,4.5-3.4.3-.2.6-.4.9-.6-17.9,29.8-32.8,58.9-38.9,85.2-.6-3.9-.8-7.9-.8-12.1ZM297.3,292.6c5.3-28.4,21.8-60.3,41.6-92.9,1.3-.9,2.8-1.8,4.3-2.7-22.4,38.5-40.4,76-41.9,108-1.8-3.9-3.1-8-4.1-12.4ZM303.3,308.8c0-33.3,19.5-73.1,43.4-113.9,1.2-.7,2.5-1.5,3.9-2.3-25.5,45.6-45.7,90-40.7,125.7-2.5-3-4.7-6.1-6.5-9.5ZM312.2,321c-6.5-36.5,14.8-82.7,41.5-130.3,1.1-.7,2.3-1.3,3.5-2-27.5,51.2-48.9,101-37.4,138.8-2.7-1.9-5.3-4.1-7.7-6.6ZM322.5,329.2c-13-38.2,9.5-89.6,37.9-142.2,1.2-.7,2.5-1.4,3.8-2.1-28.3,55.2-50.5,109-33.7,148.1-2.8-1-5.4-2.2-8-3.7ZM332.9,333.7c-17.8-39.2,5.3-94.2,34.3-150.5,1-.5,2-1.1,3.1-1.7-28.2,57.7-50.3,114-30.3,153.6-2.4-.3-4.8-.8-7.1-1.4ZM346.7,335.5c-1.5,0-3,0-4.4-.2-20.7-39.6,2.2-96.8,31-155.3.4-.2.8-.4,1.2-.7.6-.3,1.1-.6,1.7-.9-27.5,59.2-49.2,117.2-27.3,157-.7,0-1.4,0-2.1,0ZM350.9,335.4c-22.3-39.8.1-98.6,28.1-158.4.9-.5,1.8-1,2.8-1.5-26.5,60.2-47.5,119.2-24.7,159.2-2,.3-4,.6-6.1.7ZM358.9,334.3c-23-40-1.2-99.7,25.6-160.5.9-.5,1.8-1,2.7-1.6-25.2,60.7-45.5,120.3-22.6,160.6-1.9.6-3.8,1.1-5.7,1.5ZM366.4,332.2c-22.9-40.3-1.9-100.5,23.6-161.6.9-.5,1.7-1,2.6-1.6-23.8,60.7-43.1,120.7-20.8,161.1-1.8.8-3.5,1.5-5.3,2.1ZM373.4,329.3c-22.1-40.5-2.1-100.9,21.9-162.1,1-.6,2-1.3,3-1.9-22.2,60.5-40.7,120.4-19.6,161.1-1.7,1-3.5,2-5.3,2.9ZM383.3,323.4c-1,.7-2,1.4-3,2-20.7-40.8-1.7-101.2,20.7-162,.8-.5,1.6-1.1,2.3-1.6-20.6,59.9-37.9,119.4-18.3,160.3-.6.4-1.2.8-1.7,1.3ZM392.7,315.7c-17.2-41.2-.5-100.3,18.4-159.3,1.6-5.1,3.3-10.3,5-15.4,5.1-15.7,10.3-31.8,14.8-47.2,1.7-5.9,2.9-11.6,3.5-17.1-.5,4.9-1.5,9.9-2.9,15.2-4.1,15.4-8.9,31.7-13.6,47.4-1.5,5.2-3.1,10.4-4.6,15.6-17,57.6-31.9,115.2-16.2,156.3-1.4,1.6-2.8,3.1-4.3,4.6ZM398.4,309.3c-15-41.2.4-99.1,17.4-156.6,1.3-4.4,2.6-8.8,3.9-13.1,4.7-15.7,9.5-32,13.6-47.4,1.9-7.2,3-14.1,3.4-20.6-.3,6-1.2,12.2-2.8,18.7-3.7,15.5-8.2,31.8-12.5,47.6-1.2,4.4-2.4,8.9-3.6,13.3-15.1,55.7-28.6,111.6-15.3,152.7-1.3,1.9-2.6,3.8-4.1,5.6ZM403.9,301.6c-12.4-41.1,1.5-97.1,16.6-152.7,1-3.6,2-7.2,3-10.8,4.3-15.8,8.8-32.1,12.5-47.6,1.9-7.7,2.8-15,2.9-22,0,6.4-.9,13.1-2.4,20.1-3.3,15.5-7.4,31.9-11.4,47.7-1.2,4.8-2.4,9.5-3.5,14.3-12.8,52.1-24.1,104.2-13.9,144-1.2,2.4-2.5,4.8-3.8,7ZM439.3,87c-3,15.6-6.7,32-10.2,47.9-2.6,11.4-5.1,22.9-7.5,34.3-8.5,40.6-14.5,80.2-8.7,112.9-1.1,3.2-2.3,6.2-3.6,9,0,.2-.2.4-.3.6-8.5-37.1.9-84.7,12.6-132.7,1.8-7.5,3.7-14.9,5.5-22.4,3.9-15.8,8-32.2,11.4-47.8,6.8-31.5-.8-56.6-22.5-74.8-1-.8-2.1-1.7-3.1-2.5.9.7,1.8,1.4,2.7,2.1,21.7,17.5,29.7,42.1,23.7,73.3Z"/>
        <path d="M554.6,319.4c-3.9-1.1-7.7-2.4-11.3-3.9-6.5-2.6-12.4-5.9-18-9.7-22.7-15.7-35.9-40.2-43.8-69.4-9.7-35.9-11.4-78.8-13-121-.6-16.2-1.3-32.9-2.4-48.6-1-14.5-4.5-27.2-10.5-38.1-2.9-2.2-6-4.2-9.4-6.1-4-2.2-8.3-4.3-13-6.2,14.8,15.1,21.7,35.3,20.5,60.2-.8,15.7-2.1,32.4-3.4,48.5-6.1,76.4-12.4,155.4,34.7,194.1,13,10.7,29.2,17.8,49.1,21.4,7.9,1.4,16.4,2.3,25.5,2.7v-1.5c-8.4-.3-16.2-1.1-23.6-2.4-20.2-3.4-36.5-10.4-49.6-21.2-46.5-38.2-40.2-116.9-34.2-193,1.3-16.1,2.6-32.8,3.4-48.5.3-7,0-13.7-.9-20,.9,5.7,1.2,11.7,1.1,18.1-.4,15.7-1.3,32.4-2.2,48.5-4.3,76.5-8.7,155.5,39.3,193.6,12.5,10,27.9,16.6,46.4,20.2,8,1.5,16.7,2.5,26,2.8.9,0,1.9,0,2.8,0v-1.5c-9.7-.3-18.8-1.1-27.2-2.7-12.7-2.3-23.9-6.1-33.7-11.5-4.6-2.5-8.9-5.3-12.8-8.5-.9-.7-1.8-1.5-2.7-2.2-44.6-38.4-40.2-115.6-36.1-190.4.9-16.1,1.8-32.8,2.2-48.6.2-7.8-.4-15.2-1.8-22.1,1.3,6.3,1.9,13,1.9,20.1,0,15.7-.5,32.4-1.1,48.6-2.2,67.2-4.4,136.4,28.2,177.7,4.5,5.7,9.7,10.9,15.7,15.5,5.6,4.3,11.8,8,18.5,11,7.5,3.4,15.6,6,24.5,7.8,8.4,1.7,17.4,2.8,27.2,3.1,1.8,0,3.7.1,5.5.1v-1.5c-11.4-.1-21.8-1.2-31.4-3.1-8.1-1.6-15.5-3.8-22.4-6.7-7.5-3.2-14.4-7.1-20.5-11.8-7-5.4-13-11.7-18-18.8-29.5-41.2-27.3-108.2-25.2-173.3.5-16.1,1.1-32.8,1.1-48.6,0-6.6-.5-12.8-1.6-18.7,1,5.3,1.6,10.9,1.7,16.7.4,15.8.2,32.5,0,48.6-.5,59.8-1,121.2,22.5,162.8,6.6,11.7,15,21.8,25.9,29.8,6.5,4.8,13.6,8.8,21.5,11.9,5.5,2.2,11.3,4,17.5,5.4,8.9,2,18.6,3.2,29.1,3.6,2.6.1,5.4.2,8.1.2v-1.5c-13.3,0-25.2-1.2-36.1-3.6-5.7-1.3-11.2-2.9-16.3-4.9-8.2-3.2-15.7-7.2-22.4-12.2-11.9-8.8-20.9-20.2-27.7-33.4-21.1-41.2-20.6-100.4-20.1-158.2.1-16.1.3-32.9,0-48.6-.2-7.8-1.1-15.2-2.8-22,1.6,6.3,2.5,13,2.9,20.1.7,15.7,1,32.4,1.2,48.6.8,52.5,1.6,106.3,18.4,146.6,7.7,18.4,18.7,34.1,34.6,45.4,6.3,4.5,13.3,8.3,20.8,11.3,4.4,1.7,9,3.2,13.8,4.4,9.6,2.4,20,3.9,31.4,4.3,3.5.1,7,.2,10.6.1v-1.5c-15.3.2-29-1.2-41.2-4.3-4.6-1.2-9-2.6-13.2-4.2-7.6-3-14.6-6.7-20.9-11.3-17-12.2-28.4-29.5-36-49.9-14.7-39.4-15.5-90.8-16.3-141.1-.2-16.2-.5-32.9-1.2-48.6-.3-6.5-1.1-12.6-2.4-18.3,1.2,5.2,2,10.6,2.4,16.4,1.1,15.7,1.8,32.4,2.4,48.6,1.7,44.9,3.5,90.6,15,128,8.1,26.4,21.1,48.7,42.4,63.4,5.6,3.9,11.6,7.2,18.1,9.9,3.7,1.6,7.6,2.9,11.7,4.1,10.3,3,21.7,4.7,34.3,5.2,4.2.2,8.6.2,13,0v-1.5c-17.6.5-33-1.2-46.5-5.1Z"/>
      </g>
      <g>
        <path d="M113.8,498.6v11.4h-44.1v-11.4h10.2l.9-.9-7.7-18h-41l-7,18,.9.9h10.2v11.4H1.7v-11.4h9.4l.9-.9,40.7-98.3h9l42.4,98.3.9.9h9ZM68.4,468.2l-16.2-38.1h-.9l-14.8,38.1h31.8Z"/>
        <path d="M118.2,499.1h7.7l.9-.9v-47.8l-.9-1h-7.7v-10.9h7.7l.9-.9v-5.4c0-31.3,11.6-44.2,33.3-44.2s11.2,1.2,15.8,2.9v23.3h-1.4l-9.2-10c-2.7-3.1-5.6-5.8-10.4-5.8s-8.7,5.1-8.7,16.2v23.1l.9.9h14.3v10.9h-14.3l-.9,1v47.8l.9.9h11.1v10.9h-40v-10.9ZM178.3,489.4v-39.1l-.9-.9h-8.7v-2.2l26.9-28.9h2.2v20.2h22.6v10.9h-22.6v31.8c0,13.6,2.6,18.4,9.4,18.4s8.7-1.7,12.6-3.7l3.2,6c-6.5,5.6-15.8,9.9-25.5,9.9s-19.2-6-19.2-22.3Z"/>
        <path d="M282.2,495.9l3.2,6c-7.7,6-16.7,9.9-27.4,9.9-20.2,0-35.9-14.3-35.9-36.6s15-39.1,35.9-39.1,28.1,11.7,28.1,28.6-.2,5.4-.9,9.2h-42.2c1.2,16.3,9,26.4,23,26.4s10.2-1.4,16.2-4.3ZM243,464.9h24.2c-.3-14.3-4.6-19.1-11.6-19.1s-11.9,6.6-12.6,19.1Z"/>
        <path d="M317.2,456.3v42l.9.9h10.2v10.9h-39.1v-10.9h7.7l.9-.9v-41.2l-10.9-6.6v-2.2l25.5-13.1,2.2,1.2,2.2,12.2c8.3-7.7,16-12.6,22.5-12.6s3.2.2,4.9.9v21.9c-6.6-1.9-13.6-2.9-21.3-2.9s-3.7.2-5.6.3Z"/>
        <path d="M378.5,503.7v-33.3h2.9l9.9,19.1c7.8,8.5,15,11.6,23.3,11.6s17.2-4.9,17.2-14.3-4.8-13.4-24.7-23.3c-18.2-9-28.2-19.1-28.2-34.9s15.7-31.6,36.9-31.6,19.6,2.7,27.6,7.1v32h-2.6l-12.8-20.9c-3.7-4.1-8.3-6.8-16.7-6.8s-14.6,5.3-14.6,14,4.8,12.8,22.8,22.3c23,12.1,30.1,21.1,30.1,34.9s-13.3,33.2-38.3,33.2-23.1-3.4-32.8-8.8Z"/>
        <path d="M456,475.7c0-22.3,14.8-39.6,38.6-39.6s13.4,1.4,19.9,3.7v27.4h-2.2l-12.9-17.4c-3.1-2.6-5.8-3.9-9.4-3.9-8.7,0-13.3,8.2-13.3,23.3s11.1,30.8,22.8,30.8,9.7-1.2,14.8-4.1l3.2,6c-6.5,5.8-15.5,9.9-26.7,9.9-21.3,0-34.9-14.3-34.9-36.1Z"/>
        <path d="M602.3,499.1v10.9h-36.6v-10.9h7.7l.9-.9v-30.3c0-13.6-3.9-17.4-13.6-17.4s-7.8.7-13.1,2v45.6l.9.9h7.7v10.9h-36.6v-10.9h7.7l.9-.9v-88.3l-10.9-6.8v-2l28.1-13.6,2.4,1.2v57.2c9.7-6.3,16.7-9.9,25.7-9.9s20.6,6,20.6,19.9v42.4l.9.9h7.7Z"/>
        <path d="M602.6,475.7c0-22.5,15-39.6,37.1-39.6s35,13.8,35,36.9-15.5,38.8-37.1,38.8-35-14.3-35-36.1ZM654,479.6c0-19.4-7.5-33-17.7-33s-12.9,8.2-12.9,22.1,7.5,33,17.7,33,12.9-8.2,12.9-22.1Z"/>
        <path d="M678.2,475.7c0-22.5,15-39.6,37.1-39.6s35,13.8,35,36.9-15.5,38.8-37.1,38.8-35-14.3-35-36.1ZM729.5,479.6c0-19.4-7.5-33-17.7-33s-12.9,8.2-12.9,22.1,7.5,33,17.7,33,12.9-8.2,12.9-22.1Z"/>
        <path d="M750.9,499.1h7.7l.9-.9v-88.3l-10.9-6.8v-2l28.1-13.6,2.4,1.2v109.6l.9.9h7.7v10.9h-36.6v-10.9Z"/>
      </g>
      <g>
        <path d="M352.8,573.1v2.4h-10.9v-2.4h2.6l.3-.3-3.3-9.6h-11.8l-3.5,9.6.3.3h4v2.4h-11.3v-2.4h3.7l.3-.3,12.3-32.7h2.1l11.8,32.7.3.3h3.1ZM340.7,560.8l-4.9-14.4h-.1l-5.1,14.4h10.2Z"/>
        <path d="M377,557.1l-5.1-.5c.8,1.4,1.2,2.9,1.2,4.7,0,5.7-4.8,8.8-9.4,8.8s-2.5-.2-3.6-.6c-.6.8-1.1,1.8-1.1,2.8,0,1.5,1,2.2,5.8,2.2h1.4c6.3,0,8.9,1.6,8.9,4.9,0,6.2-6.9,8.8-13,8.8s-8-1.5-8-4.7,2.1-3.9,3.8-5.5c-1.6-.5-2.7-1.4-2.7-3.3s2.1-4.2,3.9-5.6c-2.5-1.4-3.9-3.9-3.9-6.9,0-6.1,4.7-9.2,9.3-9.2s4.7.9,6.2,2.3l6.3-2.6v4.5ZM359,578.1c-.7,1.1-1.2,2.5-1.2,4,0,2.9,1.9,4.1,5,4.1s8.8-1.9,8.8-5.2-1.6-2.7-5-2.7h-4c-1.4,0-2.5,0-3.6-.2ZM369,562.2c0-4.8-2.1-7.6-4.9-7.6s-4.8,2-4.8,6.3,1.8,7.3,4.9,7.3,4.9-1.8,4.9-6Z"/>
        <path d="M396.6,563.5h-14.9c0,7.1,3.7,9.7,8.6,9.7s4.1-.5,5.6-1.4l.6,1.1c-2.1,1.9-5.2,3.1-8.4,3.1-6.6,0-10.5-5-10.5-11.1s5.7-12.2,10.7-12.2,8.5,2.7,8.5,8.9,0,1.2-.1,1.8ZM381.7,561.6h10.7c-.1-4.5-1.8-6.5-4.7-6.5s-5.5,1.7-6,6.5Z"/>
        <path d="M424.1,573.1v2.4h-11.1v-2.4h3.5l.3-.3v-10.3c0-4.7-1-6.3-5-6.3s-3.9.3-6,.8v15.8l.3.3h3.5v2.4h-11.1v-2.4h3.2l.3-.3v-14.7l-3.6-1.7v-.3l6.5-3.4.3.2.4,3.1c3.2-2.1,5.7-3.2,7.8-3.2,4.9,0,7,2.3,7,6.3v13.7l.3.3h3.2Z"/>
        <path d="M425.1,565.1c0-7.9,5.4-12.3,11.5-12.3s4.2.4,6,1.2v6.4h-.3l-3.2-4.1c-1-.8-1.9-1.3-3.7-1.3-3.9,0-6.1,3.4-6.1,8.3s3.4,9.8,8,9.8,4.1-.5,5.6-1.4l.6,1.1c-2.1,1.9-5,3.1-8.1,3.1-6.9,0-10.2-5.1-10.2-11Z"/>
        <path d="M469.7,553.7v.2l-2.9,2.5-8.7,20.6-5.2,12.1-4.7-2,7.8-9.6-9.1-21.1-3.1-2.4v-.3h10.9v.2l-3.5,2.6,6.7,16,6.3-16.1-3.8-2.4v-.3h9.4Z"/>
      </g>
    </g>
  </g>
</svg>